<svg width="20" height="20" viewBox="0 0 20 20" fill="none" xmlns="http://www.w3.org/2000/svg">
<path d="M14.167 2.49998H17.5003C17.7213 2.49998 17.9333 2.58778 18.0896 2.74406C18.2459 2.90034 18.3337 3.1123 18.3337 3.33331V16.6666C18.3337 16.8877 18.2459 17.0996 18.0896 17.2559C17.9333 17.4122 17.7213 17.5 17.5003 17.5H2.50033C2.27931 17.5 2.06735 17.4122 1.91107 17.2559C1.75479 17.0996 1.66699 16.8877 1.66699 16.6666V3.33331C1.66699 3.1123 1.75479 2.90034 1.91107 2.74406C2.06735 2.58778 2.27931 2.49998 2.50033 2.49998H5.83366V0.833313H7.50033V2.49998H12.5003V0.833313H14.167V2.49998ZM3.33366 7.49998V15.8333H16.667V7.49998H3.33366ZM5.00033 9.16665H6.66699V10.8333H5.00033V9.16665ZM9.16699 9.16665H10.8337V10.8333H9.16699V9.16665ZM13.3337 9.16665H15.0003V10.8333H13.3337V9.16665Z" fill="url(#paint0_linear_11299_862)"/>
<defs>
<linearGradient id="paint0_linear_11299_862" x1="1.66699" y1="9.32388" x2="18.1636" y2="9.32388" gradientUnits="userSpaceOnUse">
<stop stop-color="#003F79"/>
<stop offset="0.9999" stop-color="#00ACDB"/>
</linearGradient>
</defs>
</svg>
