<svg width="25" height="25" viewBox="0 0 25 25" fill="none" xmlns="http://www.w3.org/2000/svg">
<path d="M12.5001 1.14526C6.22901 1.14526 1.14542 6.22886 1.14542 12.5C1.14542 18.771 6.22901 23.8546 12.5001 23.8546C18.7712 23.8546 23.8548 18.771 23.8548 12.5C23.8548 6.22886 18.7712 1.14526 12.5001 1.14526ZM13.4806 18.6562V20.2554H11.9509V18.6742C9.44073 18.3304 8.34151 16.2679 8.34151 16.2679L9.90401 14.9609C9.90401 14.9609 10.9017 16.6976 12.7064 16.6976C13.7032 16.6976 14.4595 16.164 14.4595 15.2523C14.4595 13.121 8.71729 13.3796 8.71729 9.42573C8.71729 7.70698 10.0767 6.4687 11.9501 6.17573V4.57808H13.4798V6.17573C14.786 6.34761 16.3329 7.03511 16.3329 8.51401V9.64839H14.3048V9.09839C14.3048 8.5312 13.5821 8.15308 12.7735 8.15308C11.7423 8.15308 10.9868 8.6687 10.9868 9.39058C10.9868 11.5734 16.729 11.0406 16.729 15.1835C16.729 16.8867 15.4571 18.3632 13.4806 18.6562Z" fill="url(#paint0_linear_9880_2532)"/>
<defs>
<linearGradient id="paint0_linear_9880_2532" x1="1.14542" y1="12.7142" x2="23.6231" y2="12.7142" gradientUnits="userSpaceOnUse">
<stop stop-color="#003F79"/>
<stop offset="0.9999" stop-color="#00ACDB"/>
</linearGradient>
</defs>
</svg>
