<svg width="130" height="42" viewBox="0 0 130 42" fill="none" xmlns="http://www.w3.org/2000/svg">
<path d="M119.324 13.8913C119.324 12.9098 119.507 12.0482 119.872 11.3063C120.248 10.5645 120.756 9.99389 121.395 9.59445C122.035 9.19501 122.748 8.99529 123.535 8.99529C124.163 8.99529 124.734 9.12653 125.247 9.38902C125.772 9.65151 126.183 10.0053 126.48 10.4504V6.0166H129.407V18.6846H126.48V17.3151C126.206 17.7716 125.812 18.1368 125.299 18.4107C124.796 18.6846 124.209 18.8215 123.535 18.8215C122.748 18.8215 122.035 18.6218 121.395 18.2224C120.756 17.8115 120.248 17.2352 119.872 16.4934C119.507 15.7401 119.324 14.8728 119.324 13.8913ZM126.48 13.9084C126.48 13.178 126.274 12.6017 125.863 12.1794C125.464 11.7571 124.973 11.546 124.391 11.546C123.809 11.546 123.313 11.7571 122.902 12.1794C122.502 12.5903 122.303 13.1609 122.303 13.8913C122.303 14.6217 122.502 15.2037 122.902 15.6374C123.313 16.0597 123.809 16.2708 124.391 16.2708C124.973 16.2708 125.464 16.0597 125.863 15.6374C126.274 15.2151 126.48 14.6388 126.48 13.9084Z" fill="white"/>
<path d="M107.705 13.8913C107.705 12.9098 107.888 12.0482 108.253 11.3063C108.63 10.5645 109.138 9.99389 109.777 9.59445C110.416 9.19501 111.129 8.99529 111.917 8.99529C112.544 8.99529 113.115 9.12653 113.628 9.38902C114.153 9.65151 114.564 10.0053 114.861 10.4504V6.0166H117.788V18.6846H114.861V17.3151C114.587 17.7716 114.193 18.1368 113.68 18.4107C113.178 18.6846 112.59 18.8215 111.917 18.8215C111.129 18.8215 110.416 18.6218 109.777 18.2224C109.138 17.8115 108.63 17.2352 108.253 16.4934C107.888 15.7401 107.705 14.8728 107.705 13.8913ZM114.861 13.9084C114.861 13.178 114.656 12.6017 114.245 12.1794C113.845 11.7571 113.354 11.546 112.772 11.546C112.19 11.546 111.694 11.7571 111.283 12.1794C110.884 12.5903 110.684 13.1609 110.684 13.8913C110.684 14.6217 110.884 15.2037 111.283 15.6374C111.694 16.0597 112.19 16.2708 112.772 16.2708C113.354 16.2708 113.845 16.0597 114.245 15.6374C114.656 15.2151 114.861 14.6388 114.861 13.9084Z" fill="white"/>
<path d="M104.711 8.14063C104.197 8.14063 103.775 7.99226 103.444 7.69554C103.124 7.3874 102.965 7.01078 102.965 6.56569C102.965 6.10919 103.124 5.73257 103.444 5.43584C103.775 5.1277 104.197 4.97363 104.711 4.97363C105.213 4.97363 105.624 5.1277 105.943 5.43584C106.274 5.73257 106.44 6.10919 106.44 6.56569C106.44 7.01078 106.274 7.3874 105.943 7.69554C105.624 7.99226 105.213 8.14063 104.711 8.14063ZM106.166 9.13352V18.6859H103.239V9.13352H106.166Z" fill="white"/>
<path d="M99.2296 12.5226C99.9258 12.671 100.485 13.0191 100.907 13.5669C101.33 14.1033 101.541 14.7195 101.541 15.4157C101.541 16.42 101.187 17.2189 100.479 17.8124C99.7831 18.3944 98.8073 18.6854 97.5519 18.6854H91.9541V6.66797H97.3636C98.5848 6.66797 99.5377 6.94758 100.222 7.50679C100.919 8.06601 101.267 8.82495 101.267 9.7836C101.267 10.4912 101.078 11.0789 100.702 11.5468C100.337 12.0148 99.8459 12.34 99.2296 12.5226ZM94.8814 11.5297H96.7987C97.278 11.5297 97.6432 11.427 97.8943 11.2216C98.1568 11.0048 98.2881 10.6909 98.2881 10.2801C98.2881 9.8692 98.1568 9.55535 97.8943 9.33851C97.6432 9.12168 97.278 9.01326 96.7987 9.01326H94.8814V11.5297ZM97.0384 16.323C97.5291 16.323 97.9057 16.2146 98.1682 15.9978C98.4421 15.7695 98.5791 15.4442 98.5791 15.022C98.5791 14.5997 98.4364 14.2688 98.1511 14.0291C97.8772 13.7894 97.4949 13.6696 97.0041 13.6696H94.8814V16.323H97.0384Z" fill="white"/>
<path d="M83.2626 10.484C83.548 10.0389 83.9417 9.67938 84.4438 9.40548C84.946 9.13158 85.5338 8.99463 86.2071 8.99463C86.9946 8.99463 87.7078 9.19435 88.347 9.59379C88.9861 9.99323 89.4882 10.5639 89.8534 11.3057C90.23 12.0475 90.4183 12.9091 90.4183 13.8906C90.4183 14.8721 90.23 15.7395 89.8534 16.4927C89.4882 17.2345 88.9861 17.8109 88.347 18.2217C87.7078 18.6211 86.9946 18.8209 86.2071 18.8209C85.5452 18.8209 84.9574 18.6839 84.4438 18.41C83.9417 18.1361 83.548 17.7823 83.2626 17.3486V23.2375H80.3353V9.13158H83.2626V10.484ZM87.4397 13.8906C87.4397 13.1602 87.2342 12.5896 86.8234 12.1787C86.4239 11.7565 85.9275 11.5453 85.334 11.5453C84.752 11.5453 84.2555 11.7565 83.8447 12.1787C83.4452 12.601 83.2455 13.1773 83.2455 13.9077C83.2455 14.6382 83.4452 15.2145 83.8447 15.6368C84.2555 16.059 84.752 16.2702 85.334 16.2702C85.9161 16.2702 86.4125 16.059 86.8234 15.6368C87.2342 15.2031 87.4397 14.621 87.4397 13.8906Z" fill="white"/>
<path d="M71.6439 10.484C71.9292 10.0389 72.323 9.67938 72.8251 9.40548C73.3273 9.13158 73.915 8.99463 74.5884 8.99463C75.3758 8.99463 76.0891 9.19435 76.7282 9.59379C77.3673 9.99323 77.8695 10.5639 78.2347 11.3057C78.6113 12.0475 78.7996 12.9091 78.7996 13.8906C78.7996 14.8721 78.6113 15.7395 78.2347 16.4927C77.8695 17.2345 77.3673 17.8109 76.7282 18.2217C76.0891 18.6211 75.3758 18.8209 74.5884 18.8209C73.9264 18.8209 73.3387 18.6839 72.8251 18.41C72.323 18.1361 71.9292 17.7823 71.6439 17.3486V23.2375H68.7166V9.13158H71.6439V10.484ZM75.8209 13.8906C75.8209 13.1602 75.6155 12.5896 75.2046 12.1787C74.8052 11.7565 74.3087 11.5453 73.7153 11.5453C73.1332 11.5453 72.6368 11.7565 72.2259 12.1787C71.8265 12.601 71.6268 13.1773 71.6268 13.9077C71.6268 14.6382 71.8265 15.2145 72.2259 15.6368C72.6368 16.059 73.1332 16.2702 73.7153 16.2702C74.2973 16.2702 74.7938 16.059 75.2046 15.6368C75.6155 15.2031 75.8209 14.621 75.8209 13.8906Z" fill="white"/>
<path d="M65.1402 8.14063C64.6267 8.14063 64.2044 7.99226 63.8734 7.69554C63.5539 7.3874 63.3941 7.01078 63.3941 6.56569C63.3941 6.10919 63.5539 5.73257 63.8734 5.43584C64.2044 5.1277 64.6267 4.97363 65.1402 4.97363C65.6424 4.97363 66.0533 5.1277 66.3728 5.43584C66.7038 5.73257 66.8693 6.10919 66.8693 6.56569C66.8693 7.01078 66.7038 7.3874 66.3728 7.69554C66.0533 7.99226 65.6424 8.14063 65.1402 8.14063ZM66.5953 9.13352V18.6859H63.668V9.13352H66.5953Z" fill="white"/>
<path d="M61.5464 6.0166V18.6846H58.6191V6.0166H61.5464Z" fill="white"/>
<path d="M57.0805 6.66797V9.01326H52.1845V11.5468H55.8479V13.8237H52.1845V18.6854H49.2571V6.66797H57.0805Z" fill="white"/>
<path d="M128.227 35.872L125.684 32.7575V35.872H124.282V28.8818H125.684V32.0164L128.227 28.8818H129.92L127.036 32.3469L130 35.872H128.227Z" fill="white"/>
<path d="M116.398 35.872L114.855 33.148H114.195V35.872H112.792V28.8818H115.416C115.957 28.8818 116.418 28.9786 116.798 29.1723C117.179 29.3592 117.463 29.6162 117.65 29.9434C117.843 30.2638 117.94 30.6244 117.94 31.0249C117.94 31.4856 117.806 31.9029 117.539 32.2768C117.272 32.644 116.875 32.8977 116.348 33.0379L118.02 35.872H116.398ZM114.195 32.0965H115.366C115.747 32.0965 116.031 32.0064 116.217 31.8261C116.404 31.6392 116.498 31.3821 116.498 31.055C116.498 30.7345 116.404 30.4875 116.217 30.3139C116.031 30.1337 115.747 30.0435 115.366 30.0435H114.195V32.0965Z" fill="white"/>
<path d="M103.186 35.9436C102.532 35.9436 101.931 35.79 101.384 35.4829C100.836 35.1758 100.402 34.7519 100.082 34.2111C99.7614 33.6636 99.6012 33.0461 99.6012 32.3584C99.6012 31.6774 99.7614 31.0665 100.082 30.5257C100.402 29.9783 100.836 29.551 101.384 29.2439C101.931 28.9368 102.532 28.7832 103.186 28.7832C103.847 28.7832 104.448 28.9368 104.989 29.2439C105.536 29.551 105.967 29.9783 106.281 30.5257C106.601 31.0665 106.762 31.6774 106.762 32.3584C106.762 33.0461 106.601 33.6636 106.281 34.2111C105.967 34.7519 105.536 35.1758 104.989 35.4829C104.442 35.79 103.841 35.9436 103.186 35.9436ZM103.186 34.6918C103.607 34.6918 103.978 34.5983 104.298 34.4114C104.618 34.2178 104.869 33.944 105.049 33.5902C105.229 33.2363 105.32 32.8257 105.32 32.3584C105.32 31.891 105.229 31.4838 105.049 31.1366C104.869 30.7828 104.618 30.5124 104.298 30.3254C103.978 30.1385 103.607 30.045 103.186 30.045C102.766 30.045 102.392 30.1385 102.065 30.3254C101.744 30.5124 101.494 30.7828 101.314 31.1366C101.133 31.4838 101.043 31.891 101.043 32.3584C101.043 32.8257 101.133 33.2363 101.314 33.5902C101.494 33.944 101.744 34.2178 102.065 34.4114C102.392 34.5983 102.766 34.6918 103.186 34.6918Z" fill="white"/>
<path d="M93.2454 28.8818L91.2926 35.872H89.6402L88.3283 30.8948L86.9563 35.872L85.3139 35.882L83.4312 28.8818H84.9333L86.1651 34.3097L87.5872 28.8818H89.1494L90.4914 34.2797L91.7332 28.8818H93.2454Z" fill="white"/>
<path d="M77.0694 28.8818V30.0135H75.2067V35.872H73.8047V30.0135H71.942V28.8818H77.0694Z" fill="white"/>
<path d="M63.1314 30.0127V31.7653H65.4849V32.8769H63.1314V34.7296H65.7853V35.8712H61.7294V28.8711H65.7853V30.0127H63.1314Z" fill="white"/>
<path d="M55.3678 35.8712H53.9658L50.7912 31.0743V35.8712H49.3891V28.8711H50.7912L53.9658 33.6781V28.8711H55.3678V35.8712Z" fill="white"/>
<path d="M9.96683 14.2331L7.22408 11.2614L4.27449 8.06566L1.42799 4.98159L8.61837 3.86216L14.8444 2.89288L13.5613 5.87618L9.96683 14.2331Z" fill="white"/>
<path fill-rule="evenodd" clip-rule="evenodd" d="M37.0065 20.638C37.0065 29.6778 29.6792 37.0061 20.6404 37.0061C11.6016 37.0061 4.27426 29.6778 4.27426 20.638C4.27426 17.4125 5.20712 14.4049 6.81774 11.8704C6.94875 11.6642 7.08424 11.4612 7.22408 11.2614L9.96683 14.2331L13.5613 5.87618L14.8444 2.89288L8.61837 3.86216L1.42799 4.98159L4.27449 8.06566C4.12736 8.25695 3.98351 8.45088 3.84302 8.64739C1.42674 12.0271 0.00482872 16.1664 0.00482872 20.638C0.00482872 32.036 9.24369 41.276 20.6404 41.276C32.0371 41.276 41.276 32.036 41.276 20.638C41.276 9.23994 32.0371 0 20.6404 0C16.771 0 13.1504 1.06509 10.0557 2.91812L16.0066 1.99167L14.5174 5.45393C16.4088 4.69032 18.4755 4.26993 20.6404 4.26993C29.6792 4.26993 37.0065 11.5982 37.0065 20.638ZM4.72328 7.5027L2.85589 5.47946L7.45257 4.76383C6.4598 5.5897 5.54573 6.50696 4.72328 7.5027ZM7.65288 10.6768C8.98327 8.94441 10.6524 7.48581 12.5612 6.40007L9.74623 12.9449L7.65288 10.6768Z" fill="white"/>
<path d="M9.84626 19.8098L20.4113 12.3452L31.7309 19.8098V23.542L20.4113 16.0775L9.84626 23.542V19.8098Z" fill="white"/>
<path d="M9.84621 24.3879L20.2796 16.9233V20.6556L9.84621 28.1201V24.3879Z" fill="white"/>
<rect x="18.5485" y="24.354" width="1.86667" height="1.86667" fill="white"/>
<rect x="18.5485" y="26.9678" width="1.86667" height="1.86667" fill="white"/>
<rect x="21.162" y="24.354" width="1.86667" height="1.86667" fill="white"/>
<rect x="21.162" y="26.9678" width="1.86667" height="1.86667" fill="white"/>
</svg>
