<svg width="20" height="20" viewBox="0 0 20 20" fill="none" xmlns="http://www.w3.org/2000/svg">
<path d="M15.6692 7.07751C16.4959 7.48012 17.4322 7.59932 18.3334 7.41668V16.6667C18.3334 16.8877 18.2456 17.0997 18.0893 17.2559C17.9331 17.4122 17.7211 17.5 17.5001 17.5H2.50008C2.27907 17.5 2.06711 17.4122 1.91083 17.2559C1.75455 17.0997 1.66675 16.8877 1.66675 16.6667V3.33334C1.66675 3.11233 1.75455 2.90037 1.91083 2.74409C2.06711 2.58781 2.27907 2.50001 2.50008 2.50001H13.4167C13.3617 2.76918 13.3334 3.04834 13.3334 3.33334C13.332 4.32339 13.6846 5.28131 14.3276 6.03418L10.0509 9.73584L4.70591 5.19834L3.62758 6.46834L10.0609 11.9308L15.6692 7.07751ZM17.5001 5.83334C17.1718 5.83334 16.8467 5.76868 16.5434 5.64304C16.2401 5.51741 15.9645 5.33326 15.7323 5.10111C15.5002 4.86896 15.316 4.59337 15.1904 4.29005C15.0647 3.98674 15.0001 3.66165 15.0001 3.33334C15.0001 3.00504 15.0647 2.67995 15.1904 2.37663C15.316 2.07332 15.5002 1.79772 15.7323 1.56558C15.9645 1.33343 16.2401 1.14928 16.5434 1.02364C16.8467 0.898008 17.1718 0.833344 17.5001 0.833344C18.1631 0.833344 18.799 1.09674 19.2678 1.56558C19.7367 2.03442 20.0001 2.6703 20.0001 3.33334C20.0001 3.99638 19.7367 4.63227 19.2678 5.10111C18.799 5.56995 18.1631 5.83334 17.5001 5.83334Z" fill="url(#paint0_linear_10365_1644)"/>
<defs>
<linearGradient id="paint0_linear_10365_1644" x1="1.66675" y1="9.32391" x2="19.813" y2="9.32391" gradientUnits="userSpaceOnUse">
<stop stop-color="#003F79"/>
<stop offset="0.9999" stop-color="#00ACDB"/>
</linearGradient>
</defs>
</svg>
