<svg width="20" height="20" viewBox="0 0 20 20" fill="none" xmlns="http://www.w3.org/2000/svg">
<path d="M15.669 7.07748C16.4957 7.48009 17.432 7.59928 18.3332 7.41665V16.6666C18.3332 16.8877 18.2454 17.0996 18.0891 17.2559C17.9328 17.4122 17.7209 17.5 17.4998 17.5H2.49984C2.27882 17.5 2.06686 17.4122 1.91058 17.2559C1.7543 17.0996 1.6665 16.8877 1.6665 16.6666V3.33331C1.6665 3.1123 1.7543 2.90034 1.91058 2.74406C2.06686 2.58778 2.27882 2.49998 2.49984 2.49998H13.4165C13.3615 2.76915 13.3332 3.04831 13.3332 3.33331C13.3318 4.32336 13.6844 5.28128 14.3273 6.03415L10.0507 9.73581L4.70567 5.19831L3.62734 6.46831L10.0607 11.9308L15.669 7.07748ZM17.4998 5.83331C17.1715 5.83331 16.8464 5.76865 16.5431 5.64301C16.2398 5.51737 15.9642 5.33323 15.7321 5.10108C15.4999 4.86893 15.3158 4.59334 15.1901 4.29002C15.0645 3.98671 14.9998 3.66162 14.9998 3.33331C14.9998 3.00501 15.0645 2.67992 15.1901 2.3766C15.3158 2.07329 15.4999 1.79769 15.7321 1.56555C15.9642 1.3334 16.2398 1.14925 16.5431 1.02361C16.8464 0.897977 17.1715 0.833313 17.4998 0.833313C18.1629 0.833313 18.7988 1.09671 19.2676 1.56555C19.7364 2.03439 19.9998 2.67027 19.9998 3.33331C19.9998 3.99635 19.7364 4.63224 19.2676 5.10108C18.7988 5.56992 18.1629 5.83331 17.4998 5.83331Z" fill="url(#paint0_linear_10464_118)"/>
<defs>
<linearGradient id="paint0_linear_10464_118" x1="1.6665" y1="9.32388" x2="19.8128" y2="9.32388" gradientUnits="userSpaceOnUse">
<stop stop-color="#003F79"/>
<stop offset="0.9999" stop-color="#00ACDB"/>
</linearGradient>
</defs>
</svg>
