<svg width="20" height="20" viewBox="0 0 20 20" fill="none" xmlns="http://www.w3.org/2000/svg">
<g clip-path="url(#clip0_9749_3067)">
<path d="M16.6668 18.3333H3.3335V16.6667C3.3335 15.5616 3.77248 14.5018 4.55388 13.7204C5.33529 12.939 6.39509 12.5 7.50016 12.5H12.5002C13.6052 12.5 14.665 12.939 15.4464 13.7204C16.2278 14.5018 16.6668 15.5616 16.6668 16.6667V18.3333ZM10.0002 10.8333C9.34355 10.8333 8.69337 10.704 8.08675 10.4527C7.48012 10.2015 6.92892 9.83317 6.46463 9.36888C6.00034 8.90458 5.63204 8.35339 5.38076 7.74676C5.12949 7.14013 5.00016 6.48995 5.00016 5.83334C5.00016 5.17673 5.12949 4.52655 5.38076 3.91993C5.63204 3.3133 6.00034 2.7621 6.46463 2.29781C6.92892 1.83352 7.48012 1.46522 8.08675 1.21395C8.69337 0.962672 9.34355 0.833343 10.0002 0.833344C11.3262 0.833344 12.598 1.36013 13.5357 2.29781C14.4734 3.23549 15.0002 4.50726 15.0002 5.83334C15.0002 7.15943 14.4734 8.4312 13.5357 9.36888C12.598 10.3066 11.3262 10.8333 10.0002 10.8333Z" fill="url(#paint0_linear_9749_3067)"/>
</g>
<defs>
<linearGradient id="paint0_linear_9749_3067" x1="3.3335" y1="9.74843" x2="16.5308" y2="9.74843" gradientUnits="userSpaceOnUse">
<stop stop-color="#003F79"/>
<stop offset="0.9999" stop-color="#00ACDB"/>
</linearGradient>
<clipPath id="clip0_9749_3067">
<rect width="20" height="20" fill="white"/>
</clipPath>
</defs>
</svg>
