<svg width="20" height="20" viewBox="0 0 20 20" fill="none" xmlns="http://www.w3.org/2000/svg">
<g clip-path="url(#clip0_9761_3681)">
<path d="M18.3332 9.16665V16.6666H16.6665V14.1666H3.33317V16.6666H1.6665V3.33331H3.33317V11.6666H9.99984V5.83331H14.9998C15.8839 5.83331 16.7317 6.1845 17.3569 6.80962C17.982 7.43474 18.3332 8.28259 18.3332 9.16665ZM6.6665 10.8333C6.00346 10.8333 5.36758 10.5699 4.89874 10.1011C4.4299 9.63224 4.1665 8.99635 4.1665 8.33331C4.1665 7.67027 4.4299 7.03439 4.89874 6.56555C5.36758 6.09671 6.00346 5.83331 6.6665 5.83331C7.32955 5.83331 7.96543 6.09671 8.43427 6.56555C8.90311 7.03439 9.1665 7.67027 9.1665 8.33331C9.1665 8.99635 8.90311 9.63224 8.43427 10.1011C7.96543 10.5699 7.32955 10.8333 6.6665 10.8333Z" fill="url(#paint0_linear_9761_3681)"/>
</g>
<defs>
<linearGradient id="paint0_linear_9761_3681" x1="1.6665" y1="10.1258" x2="18.1631" y2="10.1258" gradientUnits="userSpaceOnUse">
<stop stop-color="#003F79"/>
<stop offset="0.9999" stop-color="#00ACDB"/>
</linearGradient>
<clipPath id="clip0_9761_3681">
<rect width="20" height="20" fill="white"/>
</clipPath>
</defs>
</svg>
