<svg width="20" height="20" viewBox="0 0 20 20" fill="none" xmlns="http://www.w3.org/2000/svg">
<path d="M15.3033 14.47L10 19.7733L4.69667 14.47C3.64779 13.4211 2.93349 12.0847 2.64411 10.6299C2.35473 9.17501 2.50326 7.66701 3.07092 6.29657C3.63858 4.92613 4.59987 3.7548 5.83324 2.93069C7.0666 2.10658 8.51665 1.66672 10 1.66672C11.4834 1.66672 12.9334 2.10658 14.1668 2.93069C15.4001 3.7548 16.3614 4.92613 16.9291 6.29657C17.4968 7.66701 17.6453 9.17501 17.3559 10.6299C17.0665 12.0847 16.3522 13.4211 15.3033 14.47ZM10 12.5C10.8841 12.5 11.7319 12.1488 12.357 11.5237C12.9821 10.8986 13.3333 10.0507 13.3333 9.16665C13.3333 8.2826 12.9821 7.43475 12.357 6.80963C11.7319 6.18451 10.8841 5.83332 10 5.83332C9.11595 5.83332 8.2681 6.18451 7.64298 6.80963C7.01786 7.43475 6.66667 8.2826 6.66667 9.16665C6.66667 10.0507 7.01786 10.8986 7.64298 11.5237C8.2681 12.1488 9.11595 12.5 10 12.5ZM10 10.8333C9.55798 10.8333 9.13405 10.6577 8.82149 10.3452C8.50893 10.0326 8.33334 9.60868 8.33334 9.16665C8.33334 8.72463 8.50893 8.3007 8.82149 7.98814C9.13405 7.67558 9.55798 7.49999 10 7.49999C10.442 7.49999 10.866 7.67558 11.1785 7.98814C11.4911 8.3007 11.6667 8.72463 11.6667 9.16665C11.6667 9.60868 11.4911 10.0326 11.1785 10.3452C10.866 10.6577 10.442 10.8333 10 10.8333Z" fill="url(#paint0_linear_10365_1638)"/>
<defs>
<linearGradient id="paint0_linear_10365_1638" x1="2.5" y1="10.8908" x2="17.3469" y2="10.8908" gradientUnits="userSpaceOnUse">
<stop stop-color="#003F79"/>
<stop offset="0.9999" stop-color="#00ACDB"/>
</linearGradient>
</defs>
</svg>
