<svg width="20" height="20" viewBox="0 0 20 20" fill="none" xmlns="http://www.w3.org/2000/svg">
<g clip-path="url(#clip0_9761_3725)">
<path d="M11.1175 3.33335C10.8022 4.22358 10.7454 5.18492 10.9538 6.10607C11.1622 7.02722 11.6272 7.87051 12.295 8.53832C12.9628 9.20613 13.8061 9.67115 14.7273 9.87955C15.6484 10.0879 16.6098 10.0312 17.5 9.71585V17.5C17.5 17.721 17.4122 17.933 17.2559 18.0893C17.0996 18.2456 16.8877 18.3334 16.6667 18.3334H3.33333C3.11232 18.3334 2.90036 18.2456 2.74408 18.0893C2.5878 17.933 2.5 17.721 2.5 17.5V4.16669C2.5 3.94567 2.5878 3.73371 2.74408 3.57743C2.90036 3.42115 3.11232 3.33335 3.33333 3.33335H11.1175ZM15.8333 8.33335C14.9493 8.33335 14.1014 7.98216 13.4763 7.35704C12.8512 6.73192 12.5 5.88408 12.5 5.00002C12.5 4.11597 12.8512 3.26812 13.4763 2.643C14.1014 2.01788 14.9493 1.66669 15.8333 1.66669C16.7174 1.66669 17.5652 2.01788 18.1904 2.643C18.8155 3.26812 19.1667 4.11597 19.1667 5.00002C19.1667 5.88408 18.8155 6.73192 18.1904 7.35704C17.5652 7.98216 16.7174 8.33335 15.8333 8.33335Z" fill="url(#paint0_linear_9761_3725)"/>
</g>
<defs>
<linearGradient id="paint0_linear_9761_3725" x1="2.5" y1="10.1573" x2="18.9966" y2="10.1573" gradientUnits="userSpaceOnUse">
<stop stop-color="#003F79"/>
<stop offset="0.9999" stop-color="#00ACDB"/>
</linearGradient>
<clipPath id="clip0_9761_3725">
<rect width="20" height="20" fill="white"/>
</clipPath>
</defs>
</svg>
