<svg width="22" height="22" viewBox="0 0 22 22" fill="none" xmlns="http://www.w3.org/2000/svg">
<g clip-path="url(#clip0_9880_2753)">
<path d="M17.2361 7.78509C18.1455 8.22796 19.1754 8.35907 20.1667 8.15817V18.3332C20.1667 18.5763 20.0701 18.8094 19.8982 18.9814C19.7263 19.1533 19.4931 19.2498 19.25 19.2498H2.75001C2.5069 19.2498 2.27374 19.1533 2.10183 18.9814C1.92992 18.8094 1.83334 18.5763 1.83334 18.3332V3.6665C1.83334 3.42339 1.92992 3.19023 2.10183 3.01832C2.27374 2.84641 2.5069 2.74984 2.75001 2.74984H14.7583C14.6978 3.04592 14.6667 3.353 14.6667 3.6665C14.6652 4.75555 15.053 5.80926 15.7603 6.63742L11.0559 10.7093L5.17643 5.718L3.99026 7.115L11.0669 13.1238L17.2361 7.78509ZM19.25 6.4165C18.8889 6.4165 18.5313 6.34537 18.1976 6.20717C17.864 6.06897 17.5608 5.86641 17.3055 5.61105C17.0501 5.35569 16.8475 5.05253 16.7093 4.71888C16.5711 4.38524 16.5 4.02764 16.5 3.6665C16.5 3.30537 16.5711 2.94777 16.7093 2.61412C16.8475 2.28048 17.0501 1.97732 17.3055 1.72196C17.5608 1.4666 17.864 1.26404 18.1976 1.12584C18.5313 0.987635 18.8889 0.916504 19.25 0.916504C19.9794 0.916504 20.6788 1.20624 21.1946 1.72196C21.7103 2.23769 22 2.93716 22 3.6665C22 4.39585 21.7103 5.09532 21.1946 5.61105C20.6788 6.12677 19.9794 6.4165 19.25 6.4165Z" fill="white"/>
</g>
<defs>
<clipPath id="clip0_9880_2753">
<rect width="22" height="22" fill="white"/>
</clipPath>
</defs>
</svg>
