<svg width="42" height="35" viewBox="0 0 42 35" fill="none" xmlns="http://www.w3.org/2000/svg">
<path d="M41.3386 28.0259C41.3386 28.2873 41.1474 28.5486 40.8926 28.6139L24.0718 34.6241C23.4984 34.8201 22.9887 34.8854 22.4153 34.8854C21.9055 34.8854 21.4595 34.8201 20.9498 34.6895L9.60858 31.227V19.9252H10.4369C13.304 19.9252 16.1075 20.9051 18.4649 22.6037C19.9941 22.9956 27.7036 20.9705 27.1939 25.8701C27.1302 26.4581 26.939 26.9807 26.6204 27.438L28.5319 27.5686L37.006 24.8248C39.1085 24.0409 41.3386 25.6741 41.3386 28.0259Z" fill="url(#paint0_linear_0_40)"/>
<path d="M8.3343 18.3574V31.9457C8.3343 32.2724 8.01573 32.599 7.69716 32.599H1.19824C0.87967 32.599 0.561096 32.2724 0.561096 31.9457V18.3574C0.561096 17.9654 0.87967 17.7041 1.19824 17.7041H7.69716C8.07944 17.7041 8.3343 18.0307 8.3343 18.3574Z" fill="url(#paint1_linear_0_40)"/>
<path d="M23.371 6.40222V9.14602C22.479 8.88471 21.9055 8.62339 21.9055 7.70879C21.9055 6.92485 22.6064 6.46755 23.371 6.40222Z" fill="url(#paint2_linear_0_40)"/>
<path d="M26.047 12.8043C26.047 13.6536 25.2824 14.0456 24.4541 14.1762V11.3671C25.3461 11.5631 26.047 11.8897 26.047 12.8043Z" fill="url(#paint3_linear_0_40)"/>
<path d="M23.817 -7.62939e-06H23.7532C18.0189 0.0653209 13.4314 4.83431 13.4952 10.7139C13.5589 16.5281 18.1463 21.2318 23.817 21.2318H23.8807C29.5513 21.1664 34.1388 16.4628 34.1388 10.6485V10.5832C34.1388 4.63832 29.4876 -7.62939e-06 23.817 -7.62939e-06ZM24.4541 15.8095V16.9201H23.4984V15.7442C22.0967 15.6135 20.8224 15.0256 19.7392 14.0456L20.8224 12.6737C21.6507 13.4577 22.5427 13.8496 23.4984 14.0456V10.9752C21.5869 10.5179 20.1215 9.8646 20.1215 7.83942C20.1215 5.94489 21.5869 4.76898 23.4347 4.63832V3.85438H24.3904V4.63832C25.5373 4.70365 26.5567 5.09562 27.5761 5.81423L26.6204 7.25146C25.9196 6.72883 25.2187 6.46752 24.4541 6.33686V9.27665H24.5178C26.493 9.73395 27.9584 10.4526 27.9584 12.4777C27.8947 14.5683 26.3656 15.6788 24.4541 15.8095Z" fill="url(#paint4_linear_0_40)"/>
<defs>
<linearGradient id="paint0_linear_0_40" x1="9.60858" y1="27.5465" x2="41.0148" y2="27.5465" gradientUnits="userSpaceOnUse">
<stop stop-color="#003F79"/>
<stop offset="0.9999" stop-color="#00ACDB"/>
</linearGradient>
<linearGradient id="paint1_linear_0_40" x1="0.561096" y1="25.2921" x2="8.25499" y2="25.2921" gradientUnits="userSpaceOnUse">
<stop stop-color="#003F79"/>
<stop offset="0.9999" stop-color="#00ACDB"/>
</linearGradient>
<linearGradient id="paint2_linear_0_40" x1="21.9055" y1="7.80001" x2="23.356" y2="7.80001" gradientUnits="userSpaceOnUse">
<stop stop-color="#003F79"/>
<stop offset="0.9999" stop-color="#00ACDB"/>
</linearGradient>
<linearGradient id="paint3_linear_0_40" x1="24.4541" y1="12.7982" x2="26.0307" y2="12.7982" gradientUnits="userSpaceOnUse">
<stop stop-color="#003F79"/>
<stop offset="0.9999" stop-color="#00ACDB"/>
</linearGradient>
<linearGradient id="paint4_linear_0_40" x1="13.4945" y1="10.8162" x2="33.9281" y2="10.8162" gradientUnits="userSpaceOnUse">
<stop stop-color="#003F79"/>
<stop offset="0.9999" stop-color="#00ACDB"/>
</linearGradient>
</defs>
</svg>
