<svg width="46" height="46" viewBox="0 0 46 46" fill="none" xmlns="http://www.w3.org/2000/svg">
<path d="M20.3047 1.83281C20.2328 1.85078 19.8914 1.90469 19.55 1.95859C15.5969 2.60547 12.3984 5.76797 11.8234 9.59531C11.6258 10.9789 11.9133 12.9195 12.5062 14.357C12.65 14.6805 12.9016 15.3453 13.0633 15.8484C14.1234 18.8852 15.9383 21.1492 18.2203 22.2992C18.8492 22.6227 19.8734 22.9461 20.2867 22.9641C20.3945 22.9641 19.7656 23.0359 18.8852 23.0898C14.357 23.3953 11.5 24.168 9.12812 25.7672C6.81016 27.3125 5.30078 29.7023 4.51016 33.0266C4.07891 34.8055 3.89922 36.6562 3.80938 39.5852L3.77344 41.5797L4.38437 41.8672C6.68438 42.9273 10.6375 43.7 15.8125 44.0953C17.1422 44.2031 25.1203 44.257 25.2102 44.1672C25.2281 44.1492 24.8867 43.7359 24.4375 43.2867C22.7844 41.5797 21.7062 39.5133 21.2211 37.1594C21.0055 36.0633 21.0234 33.7273 21.257 32.6312C21.3648 32.182 21.4367 31.7867 21.4367 31.7687C21.4367 31.7508 21.3469 31.8047 21.2211 31.9125C21.0414 32.0922 21.0055 32.0922 20.8977 31.9844C20.8438 31.9125 19.3883 30.4211 17.6992 28.6602C15.9742 26.8633 14.6445 25.4078 14.6805 25.3719C14.7703 25.3 15.9742 25.0844 17.25 24.9406C18.5617 24.7789 24.0602 24.8148 25.3359 24.9766L26.2883 25.0844L26.7375 24.7969C26.9891 24.6352 27.5281 24.3477 27.9414 24.15L28.6961 23.8086L27.8516 23.6289C26.6656 23.3773 25.2461 23.1977 23.4133 23.0898C22.1016 23 21.9039 22.982 22.2812 22.9281C23.2516 22.7844 24.5273 22.1914 25.5695 21.3648C26.9891 20.2508 28.3367 18.3461 29.0555 16.4234C29.1633 16.1359 29.3789 15.6687 29.5047 15.3812C30.0797 14.2492 30.3852 12.2906 30.3133 10.368C30.2055 7.99609 29.343 6.00156 27.7437 4.38437C26.3422 2.98281 24.6352 2.15625 22.5867 1.86875C22.0477 1.79687 20.6102 1.77891 20.3047 1.83281ZM27.6359 10.2422C28.0133 10.5656 28.175 12.9195 27.9055 14.1953C27.043 18.2383 24.168 21.275 21.1672 21.275C18.7594 21.275 16.2797 19.2086 15.0398 16.118C14.7344 15.3453 14.4648 14.4109 14.375 13.7281C14.3211 13.3148 14.3211 13.2969 14.4648 13.3328C16.2437 13.8898 17.4836 14.0516 18.6695 13.9078C20.0531 13.7281 21.0414 13.2789 22.2453 12.2727C23.6109 11.1227 24.7609 10.4398 25.7312 10.2062C26.2883 10.0625 27.4563 10.0805 27.6359 10.2422Z" fill="url(#paint0_linear_0_52)"/>
<path d="M31.4453 25.8031C25.857 26.7914 22.407 32.4695 24.15 37.8242C25.1922 41.0227 27.8695 43.3766 31.2656 44.0953C31.9125 44.2211 34.0328 44.2211 34.6617 44.0953C38.4891 43.2687 41.2742 40.4836 42.1008 36.6563C42.2266 36.0094 42.2266 33.8891 42.1008 33.2602C41.2563 29.325 38.3094 26.468 34.4281 25.8031C33.5477 25.6414 32.3438 25.6414 31.4453 25.8031ZM33.9969 29.6664L34.9672 32.2539L37.932 32.2898L40.8969 32.3258L38.5609 34.1945C37.2852 35.2188 36.225 36.1172 36.225 36.1711C36.225 36.243 36.6203 37.4469 37.0875 38.8484C37.5727 40.25 37.95 41.4359 37.932 41.4539C37.9141 41.4719 36.782 40.7711 35.4344 39.8727L32.9727 38.2555L30.5648 39.8727C29.2352 40.7711 28.1391 41.4898 28.1391 41.4719C28.1211 41.4539 28.4805 40.268 28.9297 38.8484C29.3789 37.4109 29.7383 36.1891 29.7023 36.1352C29.6844 36.0813 28.6242 35.1828 27.3664 34.1766L25.0844 32.3438L28.0492 32.3078L31.0141 32.2719L31.9844 29.6844C32.5234 28.2648 32.9547 27.0969 32.9906 27.0969C33.0086 27.0789 33.4578 28.2469 33.9969 29.6664Z" fill="url(#paint1_linear_0_52)"/>
<defs>
<linearGradient id="paint0_linear_0_52" x1="3.77344" y1="23.4071" x2="30.0527" y2="23.4071" gradientUnits="userSpaceOnUse">
<stop stop-color="#003F79"/>
<stop offset="0.9999" stop-color="#00ACDB"/>
</linearGradient>
<linearGradient id="paint1_linear_0_52" x1="23.6956" y1="35.1103" x2="42.0064" y2="35.1103" gradientUnits="userSpaceOnUse">
<stop stop-color="#003F79"/>
<stop offset="0.9999" stop-color="#00ACDB"/>
</linearGradient>
</defs>
</svg>
