<svg width="38" height="38" viewBox="0 0 38 38" fill="none" xmlns="http://www.w3.org/2000/svg">
<rect x="0.25" y="0.25" width="37.5" height="37.5" rx="5.75" fill="#EDEDED" stroke="#9AA1AB" stroke-width="0.5"/>
<g clip-path="url(#clip0_10215_5040)">
<path d="M14.752 12.4392L25.26 18.5692C25.3353 18.6133 25.3978 18.6763 25.4412 18.752C25.4846 18.8277 25.5074 18.9135 25.5074 19.0007C25.5074 19.088 25.4846 19.1737 25.4412 19.2494C25.3978 19.3251 25.3353 19.3882 25.26 19.4322L14.752 25.5622C14.6759 25.6067 14.5893 25.6302 14.5012 25.6304C14.4131 25.6306 14.3264 25.6075 14.2501 25.5634C14.1737 25.5194 14.1104 25.4559 14.0665 25.3795C14.0226 25.3031 13.9996 25.2164 14 25.1282V12.8712C14 12.7833 14.0232 12.6968 14.0672 12.6207C14.1113 12.5445 14.1747 12.4814 14.2509 12.4375C14.3272 12.3937 14.4137 12.3708 14.5017 12.3711C14.5897 12.3714 14.676 12.3949 14.752 12.4392Z" fill="#777681"/>
</g>
<defs>
<clipPath id="clip0_10215_5040">
<rect width="24" height="24" fill="white" transform="translate(7 7)"/>
</clipPath>
</defs>
</svg>
