<svg width="20" height="20" viewBox="0 0 20 20" fill="none" xmlns="http://www.w3.org/2000/svg">
<path d="M17.5 7.49996V17.4941C17.5008 17.6036 17.48 17.7121 17.4388 17.8135C17.3976 17.9149 17.3369 18.0072 17.2601 18.0851C17.1832 18.163 17.0918 18.225 16.991 18.2676C16.8902 18.3102 16.7819 18.3325 16.6725 18.3333H3.3275C3.10818 18.3333 2.89783 18.2462 2.74266 18.0912C2.5875 17.9362 2.50022 17.7259 2.5 17.5066V2.49329C2.5 2.04579 2.8725 1.66663 3.33167 1.66663H11.6667V6.66663C11.6667 6.88764 11.7545 7.0996 11.9107 7.25588C12.067 7.41216 12.279 7.49996 12.5 7.49996H17.5ZM17.5 5.83329H13.3333V1.66913L17.5 5.83329ZM6.66667 5.83329V7.49996H9.16667V5.83329H6.66667ZM6.66667 9.16663V10.8333H13.3333V9.16663H6.66667ZM6.66667 12.5V14.1666H13.3333V12.5H6.66667Z" fill="url(#paint0_linear_10464_1277)"/>
<defs>
<linearGradient id="paint0_linear_10464_1277" x1="2.5" y1="10.1572" x2="17.347" y2="10.1572" gradientUnits="userSpaceOnUse">
<stop stop-color="#003F79"/>
<stop offset="0.9999" stop-color="#00ACDB"/>
</linearGradient>
</defs>
</svg>
