<svg width="31" height="30" viewBox="0 0 31 30" fill="none" xmlns="http://www.w3.org/2000/svg">
<path d="M13.7194 20.75L22.5319 11.9375L20.7819 10.1875L13.7194 17.25L10.1569 13.6875L8.40694 15.4375L13.7194 20.75ZM15.4694 27.5C13.7403 27.5 12.1153 27.1717 10.5944 26.515C9.07361 25.8583 7.75069 24.9679 6.62569 23.8438C5.50069 22.7196 4.61028 21.3967 3.95444 19.875C3.29861 18.3533 2.97028 16.7283 2.96944 15C2.96861 13.2717 3.29694 11.6467 3.95444 10.125C4.61194 8.60333 5.50236 7.28042 6.62569 6.15625C7.74903 5.03208 9.07194 4.14167 10.5944 3.485C12.1169 2.82833 13.7419 2.5 15.4694 2.5C17.1969 2.5 18.8219 2.82833 20.3444 3.485C21.8669 4.14167 23.1899 5.03208 24.3132 6.15625C25.4365 7.28042 26.3274 8.60333 26.9857 10.125C27.644 11.6467 27.9719 13.2717 27.9694 15C27.9669 16.7283 27.6386 18.3533 26.9844 19.875C26.3303 21.3967 25.4399 22.7196 24.3132 23.8438C23.1865 24.9679 21.8636 25.8587 20.3444 26.5162C18.8253 27.1737 17.2003 27.5017 15.4694 27.5Z" fill="url(#paint0_linear_9880_3218)"/>
<defs>
<linearGradient id="paint0_linear_9880_3218" x1="2.96944" y1="15.2358" x2="27.7144" y2="15.2358" gradientUnits="userSpaceOnUse">
<stop stop-color="#003F79"/>
<stop offset="0.9999" stop-color="#00ACDB"/>
</linearGradient>
</defs>
</svg>
