<svg width="20" height="20" viewBox="0 0 20 20" fill="none" xmlns="http://www.w3.org/2000/svg">
<path d="M17.4997 15.8333H19.1663V17.5H0.833008V15.8333H2.49967V3.33333C2.49967 3.11232 2.58747 2.90036 2.74375 2.74408C2.90003 2.5878 3.11199 2.5 3.33301 2.5H11.6663C11.8874 2.5 12.0993 2.5878 12.2556 2.74408C12.4119 2.90036 12.4997 3.11232 12.4997 3.33333V15.8333H14.1663V7.5H16.6663C16.8874 7.5 17.0993 7.5878 17.2556 7.74408C17.4119 7.90036 17.4997 8.11232 17.4997 8.33333V15.8333ZM5.83301 9.16667V10.8333H9.16634V9.16667H5.83301ZM5.83301 5.83333V7.5H9.16634V5.83333H5.83301Z" fill="url(#paint0_linear_11299_1656)"/>
<defs>
<linearGradient id="paint0_linear_11299_1656" x1="0.833008" y1="10.1415" x2="18.9793" y2="10.1415" gradientUnits="userSpaceOnUse">
<stop stop-color="#003F79"/>
<stop offset="0.9999" stop-color="#00ACDB"/>
</linearGradient>
</defs>
</svg>
