<svg width="18" height="18" viewBox="0 0 18 18" fill="none" xmlns="http://www.w3.org/2000/svg">
<path d="M9 10.7496L2.875 16.8746C2.64583 17.1038 2.35417 17.2184 2 17.2184C1.64583 17.2184 1.35417 17.1038 1.125 16.8746C0.895833 16.6455 0.78125 16.3538 0.78125 15.9996C0.78125 15.6455 0.895833 15.3538 1.125 15.1246L7.25 8.99965L1.125 2.87465C0.895833 2.64548 0.78125 2.35382 0.78125 1.99965C0.78125 1.64548 0.895833 1.35382 1.125 1.12465C1.35417 0.895482 1.64583 0.780899 2 0.780899C2.35417 0.780899 2.64583 0.895482 2.875 1.12465L9 7.24965L15.125 1.12465C15.3542 0.895482 15.6458 0.780899 16 0.780899C16.3542 0.780899 16.6458 0.895482 16.875 1.12465C17.1042 1.35382 17.2188 1.64548 17.2188 1.99965C17.2188 2.35382 17.1042 2.64548 16.875 2.87465L10.75 8.99965L16.875 15.1246C17.1042 15.3538 17.2188 15.6455 17.2188 15.9996C17.2188 16.3538 17.1042 16.6455 16.875 16.8746C16.6458 17.1038 16.3542 17.2184 16 17.2184C15.6458 17.2184 15.3542 17.1038 15.125 16.8746L9 10.7496Z" fill="#9593A2"/>
</svg>
