<svg width="13" height="14" viewBox="0 0 13 14" fill="none" xmlns="http://www.w3.org/2000/svg">
<path d="M5.12375 2.84152V2.99564H7.58975V2.84152C7.58975 2.5145 7.45985 2.20089 7.22861 1.96965C6.99738 1.73842 6.68376 1.60852 6.35675 1.60852C6.02974 1.60852 5.71612 1.73842 5.48489 1.96965C5.25366 2.20089 5.12375 2.5145 5.12375 2.84152ZM4.35313 2.99564V2.84152C4.35313 2.31012 4.56422 1.80049 4.93997 1.42474C5.31573 1.04899 5.82536 0.837891 6.35675 0.837891C6.88814 0.837891 7.39777 1.04899 7.77353 1.42474C8.14928 1.80049 8.36038 2.31012 8.36038 2.84152V2.99564H11.8282C11.9304 2.99564 12.0284 3.03624 12.1006 3.1085C12.1729 3.18076 12.2135 3.27876 12.2135 3.38095C12.2135 3.48314 12.1729 3.58115 12.1006 3.65341C12.0284 3.72567 11.9304 3.76627 11.8282 3.76627H10.929L10.3125 11.1199C10.2657 11.6783 10.0108 12.1988 9.59826 12.5781C9.18576 12.9574 8.64581 13.1679 8.08542 13.1679H4.62808C4.06775 13.1678 3.52787 12.9573 3.11544 12.578C2.70301 12.1987 2.44812 11.6783 2.40129 11.1199L1.78479 3.76627H0.885312C0.783121 3.76627 0.685116 3.72567 0.612855 3.65341C0.540595 3.58115 0.5 3.48314 0.5 3.38095C0.5 3.27876 0.540595 3.18076 0.612855 3.1085C0.685116 3.03624 0.783121 2.99564 0.885312 2.99564H4.35313ZM3.16914 11.0555C3.19982 11.4213 3.36682 11.7623 3.63703 12.0108C3.90725 12.2593 4.26096 12.3972 4.62808 12.3973H8.08542C8.45259 12.3973 8.80638 12.2594 9.07666 12.0109C9.34694 11.7624 9.51398 11.4213 9.54467 11.0555L10.1556 3.76627H2.55788L3.16914 11.0555ZM5.58613 5.84695C5.58613 5.79635 5.57616 5.74625 5.5568 5.6995C5.53743 5.65275 5.50905 5.61028 5.47327 5.5745C5.43749 5.53872 5.39501 5.51033 5.34827 5.49097C5.30152 5.47161 5.25141 5.46164 5.20081 5.46164C5.15021 5.46164 5.10011 5.47161 5.05336 5.49097C5.00661 5.51033 4.96413 5.53872 4.92836 5.5745C4.89258 5.61028 4.86419 5.65275 4.84483 5.6995C4.82547 5.74625 4.8155 5.79635 4.8155 5.84695V10.3166C4.8155 10.3672 4.82547 10.4173 4.84483 10.464C4.86419 10.5108 4.89258 10.5533 4.92836 10.589C4.96413 10.6248 5.00661 10.6532 5.05336 10.6726C5.10011 10.6919 5.15021 10.7019 5.20081 10.7019C5.25141 10.7019 5.30152 10.6919 5.34827 10.6726C5.39501 10.6532 5.43749 10.6248 5.47327 10.589C5.50905 10.5533 5.53743 10.5108 5.5568 10.464C5.57616 10.4173 5.58613 10.3672 5.58613 10.3166V5.84695ZM7.51269 5.46164C7.72538 5.46164 7.898 5.63426 7.898 5.84695V10.3166C7.898 10.4188 7.85741 10.5168 7.78515 10.589C7.71288 10.6613 7.61488 10.7019 7.51269 10.7019C7.4105 10.7019 7.31249 10.6613 7.24023 10.589C7.16797 10.5168 7.12738 10.4188 7.12738 10.3166V5.84695C7.12738 5.63426 7.3 5.46164 7.51269 5.46164Z" fill="#777681" stroke="#777681" stroke-width="0.5"/>
</svg>
