<svg width="20" height="20" viewBox="0 0 20 20" fill="none" xmlns="http://www.w3.org/2000/svg">
<path d="M10.0003 18.3334C5.39783 18.3334 1.66699 14.6025 1.66699 10C1.66699 5.39752 5.39783 1.66669 10.0003 1.66669C14.6028 1.66669 18.3337 5.39752 18.3337 10C18.3337 14.6025 14.6028 18.3334 10.0003 18.3334ZM7.08366 11.6667V13.3334H9.16699V15H10.8337V13.3334H11.667C12.2195 13.3334 12.7494 13.1139 13.1401 12.7232C13.5308 12.3325 13.7503 11.8026 13.7503 11.25C13.7503 10.6975 13.5308 10.1676 13.1401 9.77688C12.7494 9.38618 12.2195 9.16669 11.667 9.16669H8.33366C8.22315 9.16669 8.11717 9.12279 8.03903 9.04465C7.96089 8.96651 7.91699 8.86053 7.91699 8.75002C7.91699 8.63951 7.96089 8.53353 8.03903 8.45539C8.11717 8.37725 8.22315 8.33335 8.33366 8.33335H12.917V6.66669H10.8337V5.00002H9.16699V6.66669H8.33366C7.78112 6.66669 7.25122 6.88618 6.86052 7.27688C6.46982 7.66758 6.25033 8.19749 6.25033 8.75002C6.25033 9.30256 6.46982 9.83246 6.86052 10.2232C7.25122 10.6139 7.78112 10.8334 8.33366 10.8334H11.667C11.7775 10.8334 11.8835 10.8773 11.9616 10.9554C12.0398 11.0335 12.0837 11.1395 12.0837 11.25C12.0837 11.3605 12.0398 11.4665 11.9616 11.5446C11.8835 11.6228 11.7775 11.6667 11.667 11.6667H7.08366Z" fill="url(#paint0_linear_11299_1049)"/>
<defs>
<linearGradient id="paint0_linear_11299_1049" x1="1.66699" y1="10.1573" x2="18.1636" y2="10.1573" gradientUnits="userSpaceOnUse">
<stop stop-color="#003F79"/>
<stop offset="0.9999" stop-color="#00ACDB"/>
</linearGradient>
</defs>
</svg>
