<svg width="20" height="20" viewBox="0 0 20 20" fill="none" xmlns="http://www.w3.org/2000/svg">
<g clip-path="url(#clip0_10028_7994)">
<path d="M2.5 3.3275C2.5 2.87083 2.87083 2.5 3.3275 2.5H16.6725C17.1292 2.5 17.5 2.87083 17.5 3.3275V16.6725C17.4998 16.8919 17.4125 17.1022 17.2574 17.2574C17.1022 17.4125 16.8919 17.4998 16.6725 17.5H3.3275C3.1081 17.4998 2.89775 17.4125 2.74261 17.2574C2.58747 17.1022 2.50022 16.8919 2.5 16.6725V3.3275ZM5 14.1667V15.8333H15V14.1667H5ZM4.16667 4.16667V5.83333H5.83333V4.16667H4.16667ZM10 10C9.55797 10 9.13405 9.8244 8.82149 9.51184C8.50893 9.19928 8.33333 8.77536 8.33333 8.33333C8.33333 7.89131 8.50893 7.46738 8.82149 7.15482C9.13405 6.84226 9.55797 6.66667 10 6.66667C10.442 6.66667 10.866 6.84226 11.1785 7.15482C11.4911 7.46738 11.6667 7.89131 11.6667 8.33333C11.6667 8.77536 11.4911 9.19928 11.1785 9.51184C10.866 9.8244 10.442 10 10 10ZM10 11.6667C10.8841 11.6667 11.7319 11.3155 12.357 10.6904C12.9821 10.0652 13.3333 9.21739 13.3333 8.33333C13.3333 7.44928 12.9821 6.60143 12.357 5.97631C11.7319 5.35119 10.8841 5 10 5C9.11594 5 8.2681 5.35119 7.64298 5.97631C7.01786 6.60143 6.66667 7.44928 6.66667 8.33333C6.66667 9.21739 7.01786 10.0652 7.64298 10.6904C8.2681 11.3155 9.11594 11.6667 10 11.6667Z" fill="url(#paint0_linear_10028_7994)"/>
</g>
<defs>
<linearGradient id="paint0_linear_10028_7994" x1="2.5" y1="10.1415" x2="17.3469" y2="10.1415" gradientUnits="userSpaceOnUse">
<stop stop-color="#003F79"/>
<stop offset="0.9999" stop-color="#00ACDB"/>
</linearGradient>
<clipPath id="clip0_10028_7994">
<rect width="20" height="20" fill="white"/>
</clipPath>
</defs>
</svg>
