<svg width="20" height="20" viewBox="0 0 20 20" fill="none" xmlns="http://www.w3.org/2000/svg">
<path d="M1.66699 4.16663L7.50033 1.66663L12.5003 4.16663L17.7528 1.91579C17.8162 1.88861 17.8854 1.8776 17.9541 1.88374C18.0228 1.88989 18.0889 1.913 18.1465 1.951C18.2041 1.989 18.2513 2.0407 18.284 2.10146C18.3167 2.16222 18.3337 2.23014 18.3337 2.29913V15.8333L12.5003 18.3333L7.50033 15.8333L2.24783 18.0841C2.18442 18.1113 2.11526 18.1223 2.04655 18.1162C1.97784 18.11 1.91172 18.0869 1.85415 18.0489C1.79657 18.0109 1.74933 17.9592 1.71666 17.8985C1.684 17.8377 1.66693 17.7698 1.66699 17.7008V4.16663Z" fill="url(#paint0_linear_11299_553)"/>
<defs>
<linearGradient id="paint0_linear_11299_553" x1="1.66699" y1="10.1572" x2="18.1636" y2="10.1572" gradientUnits="userSpaceOnUse">
<stop stop-color="#003F79"/>
<stop offset="0.9999" stop-color="#00ACDB"/>
</linearGradient>
</defs>
</svg>
