<svg width="20" height="20" viewBox="0 0 20 20" fill="none" xmlns="http://www.w3.org/2000/svg">
<path d="M15.3031 12.9467L14.1247 11.7667L15.3031 10.5883C15.6927 10.202 16.0023 9.74257 16.214 9.23632C16.4256 8.73007 16.5352 8.187 16.5364 7.63829C16.5376 7.08959 16.4304 6.54604 16.221 6.03887C16.0115 5.5317 15.704 5.07089 15.316 4.68289C14.928 4.2949 14.4672 3.98736 13.96 3.77793C13.4528 3.5685 12.9093 3.46131 12.3606 3.46251C11.8119 3.46372 11.2688 3.57328 10.7626 3.78493C10.2563 3.99658 9.79685 4.30613 9.41056 4.69582L8.23222 5.87499L7.05306 4.69666L8.23306 3.51832C9.32708 2.42431 10.8109 1.80969 12.3581 1.80969C13.9052 1.80969 15.389 2.42431 16.4831 3.51832C17.5771 4.61234 18.1917 6.09615 18.1917 7.64332C18.1917 9.1905 17.5771 10.6743 16.4831 11.7683L15.3039 12.9467H15.3031ZM12.9464 15.3033L11.7672 16.4817C10.6732 17.5757 9.1894 18.1903 7.64222 18.1903C6.09505 18.1903 4.61124 17.5757 3.51722 16.4817C2.42321 15.3876 1.80859 13.9038 1.80859 12.3567C1.80859 10.8095 2.42321 9.32568 3.51722 8.23166L4.69639 7.05332L5.87472 8.23332L4.69639 9.41166C4.3067 9.79795 3.99714 10.2574 3.7855 10.7637C3.57385 11.2699 3.46428 11.813 3.46308 12.3617C3.46188 12.9104 3.56907 13.4539 3.7785 13.9611C3.98792 14.4683 4.29546 14.9291 4.68346 15.3171C5.07146 15.7051 5.53227 16.0126 6.03944 16.2221C6.54661 16.4315 7.09015 16.5387 7.63886 16.5375C8.18757 16.5363 8.73064 16.4267 9.23689 16.2151C9.74314 16.0034 10.2026 15.6938 10.5889 15.3042L11.7672 14.1258L12.9464 15.3042V15.3033ZM12.3564 6.46416L13.5356 7.64332L7.64306 13.535L6.46389 12.3567L12.3564 6.46499V6.46416Z" fill="url(#paint0_linear_10464_1091)"/>
<defs>
<linearGradient id="paint0_linear_10464_1091" x1="1.80859" y1="10.1545" x2="18.0245" y2="10.1545" gradientUnits="userSpaceOnUse">
<stop stop-color="#003F79"/>
<stop offset="0.9999" stop-color="#00ACDB"/>
</linearGradient>
</defs>
</svg>
