<svg width="38" height="38" viewBox="0 0 38 38" fill="none" xmlns="http://www.w3.org/2000/svg">
<rect x="0.25" y="0.25" width="37.5" height="37.5" rx="5.75" fill="#EDEDED" stroke="#9AA1AB" stroke-width="0.5"/>
<path fill-rule="evenodd" clip-rule="evenodd" d="M14 12.6875C14 12.5052 14.0724 12.3303 14.2014 12.2014C14.3303 12.0724 14.5052 12 14.6875 12H17.0625C17.2448 12 17.4197 12.0724 17.5486 12.2014C17.6776 12.3303 17.75 12.5052 17.75 12.6875V25.0625C17.75 25.2448 17.6776 25.4197 17.5486 25.5486C17.4197 25.6776 17.2448 25.75 17.0625 25.75H14.6875C14.5052 25.75 14.3303 25.6776 14.2014 25.5486C14.0724 25.4197 14 25.2448 14 25.0625V12.6875ZM20.875 12.6875C20.875 12.5052 20.9474 12.3303 21.0764 12.2014C21.2053 12.0724 21.3802 12 21.5625 12H23.9375C24.1198 12 24.2947 12.0724 24.4236 12.2014C24.5526 12.3303 24.625 12.5052 24.625 12.6875V25.0625C24.625 25.2448 24.5526 25.4197 24.4236 25.5486C24.2947 25.6776 24.1198 25.75 23.9375 25.75H21.5625C21.3802 25.75 21.2053 25.6776 21.0764 25.5486C20.9474 25.4197 20.875 25.2448 20.875 25.0625V12.6875Z" fill="#575665"/>
</svg>
