<svg width="20" height="20" viewBox="0 0 20 20" fill="none" xmlns="http://www.w3.org/2000/svg">
<g clip-path="url(#clip0_10070_8461)">
<path d="M10.833 11.7183V18.3333H3.33301C3.33292 17.3874 3.53412 16.4523 3.92323 15.5902C4.31234 14.7281 4.88047 13.9586 5.58986 13.3329C6.29924 12.7072 7.13365 12.2397 8.03765 11.9613C8.94165 11.6829 9.89454 11.6001 10.833 11.7183ZM9.99967 10.8333C7.23717 10.8333 4.99967 8.59581 4.99967 5.83331C4.99967 3.07081 7.23717 0.833313 9.99967 0.833313C12.7622 0.833313 14.9997 3.07081 14.9997 5.83331C14.9997 8.59581 12.7622 10.8333 9.99967 10.8333ZM14.8272 16.595L17.773 13.6491L18.9522 14.8275L14.8272 18.9525L11.8805 16.0058L13.0597 14.8275L14.8263 16.595H14.8272Z" fill="url(#paint0_linear_10070_8461)"/>
</g>
<defs>
<linearGradient id="paint0_linear_10070_8461" x1="3.33301" y1="10.0638" x2="18.7928" y2="10.0638" gradientUnits="userSpaceOnUse">
<stop stop-color="#003F79"/>
<stop offset="0.9999" stop-color="#00ACDB"/>
</linearGradient>
<clipPath id="clip0_10070_8461">
<rect width="20" height="20" fill="white"/>
</clipPath>
</defs>
</svg>
