<svg width="500" height="500" xmlns="http://www.w3.org/2000/svg">
  <defs>
    <pattern id="grid" width="50" height="50" patternUnits="userSpaceOnUse">
      <path d="M 0 0 L 50 0 L 50 50 L 0 50 Z" fill="none" stroke="white" stroke-width="0.5" opacity="0.1"/>
    </pattern>
    
    <!-- House icon -->
    <path id="house" d="M10,20 L10,30 L20,30 L20,20 L15,15 Z" fill="white" opacity="0.2"/>
    
    <!-- Building icon -->
    <path id="building" d="M5,20 L5,35 L15,35 L15,20 Z M7,22 L9,22 L9,24 L7,24 Z M11,22 L13,22 L13,24 L11,24 Z M7,26 L9,26 L9,28 L7,28 Z M11,26 L13,26 L13,28 L11,28 Z M7,30 L9,30 L9,32 L7,32 Z M11,30 L13,30 L13,32 L11,32 Z" fill="white" opacity="0.2"/>
    
    <!-- Key icon -->
    <path id="key" d="M25,25 A5,5 0 1,1 30,30 L35,35 L35,37 L33,37 L33,35 L31,35 L31,33 L29,33 L29,35 L27,35 L27,33 L25,31 Z" fill="white" opacity="0.2"/>
  </defs>
  
  <!-- Background grid -->
  <rect width="100%" height="100%" fill="url(#grid)"/>
  
  <!-- Pattern elements -->
  <use href="#house" x="20" y="20"/>
  <use href="#house" x="120" y="120"/>
  <use href="#house" x="220" y="220"/>
  <use href="#house" x="320" y="320"/>
  <use href="#house" x="420" y="420"/>
  
  <use href="#building" x="70" y="70"/>
  <use href="#building" x="170" y="170"/>
  <use href="#building" x="270" y="270"/>
  <use href="#building" x="370" y="370"/>
  
  <use href="#key" x="20" y="170"/>
  <use href="#key" x="120" y="270"/>
  <use href="#key" x="220" y="370"/>
  <use href="#key" x="320" y="70"/>
</svg> 